<svg id="visual" viewBox="0 0 960 540" width="960" height="540" xmlns="http://www.w3.org/2000/svg" xmlns:xlink="http://www.w3.org/1999/xlink" version="1.1"><path d="M0 44L14.5 43.2C29 42.3 58 40.7 87.2 39.8C116.3 39 145.7 39 174.8 40.8C204 42.7 233 46.3 262 43.7C291 41 320 32 349 35.5C378 39 407 55 436.2 58.5C465.3 62 494.7 53 523.8 45C553 37 582 30 611 33.7C640 37.3 669 51.7 698 56.2C727 60.7 756 55.3 785.2 57.2C814.3 59 843.7 68 872.8 64.3C902 60.7 931 44.3 945.5 36.2L960 28L960 0L945.5 0C931 0 902 0 872.8 0C843.7 0 814.3 0 785.2 0C756 0 727 0 698 0C669 0 640 0 611 0C582 0 553 0 523.8 0C494.7 0 465.3 0 436.2 0C407 0 378 0 349 0C320 0 291 0 262 0C233 0 204 0 174.8 0C145.7 0 116.3 0 87.2 0C58 0 29 0 14.5 0L0 0Z" fill="#000000"></path><path d="M0 82L14.5 88.3C29 94.7 58 107.3 87.2 108.2C116.3 109 145.7 98 174.8 97C204 96 233 105 262 109.5C291 114 320 114 349 118.5C378 123 407 132 436.2 136.5C465.3 141 494.7 141 523.8 136.5C553 132 582 123 611 116.8C640 110.7 669 107.3 698 113.7C727 120 756 136 785.2 140.5C814.3 145 843.7 138 872.8 132.7C902 127.3 931 123.7 945.5 121.8L960 120L960 26L945.5 34.2C931 42.3 902 58.7 872.8 62.3C843.7 66 814.3 57 785.2 55.2C756 53.3 727 58.7 698 54.2C669 49.7 640 35.3 611 31.7C582 28 553 35 523.8 43C494.7 51 465.3 60 436.2 56.5C407 53 378 37 349 33.5C320 30 291 39 262 41.7C233 44.3 204 40.7 174.8 38.8C145.7 37 116.3 37 87.2 37.8C58 38.7 29 40.3 14.5 41.2L0 42Z" fill="#00000"></path><path d="M0 98L14.5 107C29 116 58 134 87.2 137.7C116.3 141.3 145.7 130.7 174.8 132.5C204 134.3 233 148.7 262 155.8C291 163 320 163 349 162.2C378 161.3 407 159.7 436.2 158.8C465.3 158 494.7 158 523.8 156.2C553 154.3 582 150.7 611 149.7C640 148.7 669 150.3 698 159.3C727 168.3 756 184.7 785.2 184.7C814.3 184.7 843.7 168.3 872.8 162C902 155.7 931 159.3 945.5 161.2L960 163L960 118L945.5 119.8C931 121.7 902 125.3 872.8 130.7C843.7 136 814.3 143 785.2 138.5C756 134 727 118 698 111.7C669 105.3 640 108.7 611 114.8C582 121 553 130 523.8 134.5C494.7 139 465.3 139 436.2 134.5C407 130 378 121 349 116.5C320 112 291 112 262 107.5C233 103 204 94 174.8 95C145.7 96 116.3 107 87.2 106.2C58 105.3 29 92.7 14.5 86.3L0 80Z" fill="#6010a5"></path><path d="M0 185L14.5 185.8C29 186.7 58 188.3 87.2 191C116.3 193.7 145.7 197.3 174.8 200C204 202.7 233 204.3 262 207.8C291 211.3 320 216.7 349 221.2C378 225.7 407 229.3 436.2 228.5C465.3 227.7 494.7 222.3 523.8 221.5C553 220.7 582 224.3 611 226.2C640 228 669 228 698 237C727 246 756 264 785.2 259.5C814.3 255 843.7 228 872.8 216.3C902 204.7 931 208.3 945.5 210.2L960 212L960 161L945.5 159.2C931 157.3 902 153.7 872.8 160C843.7 166.3 814.3 182.7 785.2 182.7C756 182.7 727 166.3 698 157.3C669 148.3 640 146.7 611 147.7C582 148.7 553 152.3 523.8 154.2C494.7 156 465.3 156 436.2 156.8C407 157.7 378 159.3 349 160.2C320 161 291 161 262 153.8C233 146.7 204 132.3 174.8 130.5C145.7 128.7 116.3 139.3 87.2 135.7C58 132 29 114 14.5 105L0 96Z" fill="#7f23c2"></path><path d="M0 384L14.5 378.7C29 373.3 58 362.7 87.2 358.2C116.3 353.7 145.7 355.3 174.8 348.2C204 341 233 325 262 318.8C291 312.7 320 316.3 349 317.2C378 318 407 316 436.2 319.5C465.3 323 494.7 332 523.8 341C553 350 582 359 611 356.3C640 353.7 669 339.3 698 334.8C727 330.3 756 335.7 785.2 338.3C814.3 341 843.7 341 872.8 336.5C902 332 931 323 945.5 318.5L960 314L960 210L945.5 208.2C931 206.3 902 202.7 872.8 214.3C843.7 226 814.3 253 785.2 257.5C756 262 727 244 698 235C669 226 640 226 611 224.2C582 222.3 553 218.7 523.8 219.5C494.7 220.3 465.3 225.7 436.2 226.5C407 227.3 378 223.7 349 219.2C320 214.7 291 209.3 262 205.8C233 202.3 204 200.7 174.8 198C145.7 195.3 116.3 191.7 87.2 189C58 186.3 29 184.7 14.5 183.8L0 183Z" fill="#7f23c2"></path><path d="M0 465L14.5 470.5C29 476 58 487 87.2 484.3C116.3 481.7 145.7 465.3 174.8 453.7C204 442 233 435 262 433.2C291 431.3 320 434.7 349 440C378 445.3 407 452.7 436.2 456.3C465.3 460 494.7 460 523.8 456.3C553 452.7 582 445.3 611 445.3C640 445.3 669 452.7 698 458.2C727 463.7 756 467.3 785.2 469.2C814.3 471 843.7 471 872.8 467.3C902 463.7 931 456.3 945.5 452.7L960 449L960 312L945.5 316.5C931 321 902 330 872.8 334.5C843.7 339 814.3 339 785.2 336.3C756 333.7 727 328.3 698 332.8C669 337.3 640 351.7 611 354.3C582 357 553 348 523.8 339C494.7 330 465.3 321 436.2 317.5C407 314 378 316 349 315.2C320 314.3 291 310.7 262 316.8C233 323 204 339 174.8 346.2C145.7 353.3 116.3 351.7 87.2 356.2C58 360.7 29 371.3 14.5 376.7L0 382Z" fill="#6010a5"></path><path d="M0 498L14.5 500.7C29 503.3 58 508.7 87.2 508.7C116.3 508.7 145.7 503.3 174.8 498C204 492.7 233 487.3 262 485.5C291 483.7 320 485.3 349 490.7C378 496 407 505 436.2 504.2C465.3 503.3 494.7 492.7 523.8 488.2C553 483.7 582 485.3 611 489.8C640 494.3 669 501.7 698 501.7C727 501.7 756 494.3 785.2 492.5C814.3 490.7 843.7 494.3 872.8 494.3C902 494.3 931 490.7 945.5 488.8L960 487L960 447L945.5 450.7C931 454.3 902 461.7 872.8 465.3C843.7 469 814.3 469 785.2 467.2C756 465.3 727 461.7 698 456.2C669 450.7 640 443.3 611 443.3C582 443.3 553 450.7 523.8 454.3C494.7 458 465.3 458 436.2 454.3C407 450.7 378 443.3 349 438C320 432.7 291 429.3 262 431.2C233 433 204 440 174.8 451.7C145.7 463.3 116.3 479.7 87.2 482.3C58 485 29 474 14.5 468.5L0 463Z" fill="#000000"></path><path d="M0 541L14.5 541C29 541 58 541 87.2 541C116.3 541 145.7 541 174.8 541C204 541 233 541 262 541C291 541 320 541 349 541C378 541 407 541 436.2 541C465.3 541 494.7 541 523.8 541C553 541 582 541 611 541C640 541 669 541 698 541C727 541 756 541 785.2 541C814.3 541 843.7 541 872.8 541C902 541 931 541 945.5 541L960 541L960 485L945.5 486.8C931 488.7 902 492.3 872.8 492.3C843.7 492.3 814.3 488.7 785.2 490.5C756 492.3 727 499.7 698 499.7C669 499.7 640 492.3 611 487.8C582 483.3 553 481.7 523.8 486.2C494.7 490.7 465.3 501.3 436.2 502.2C407 503 378 494 349 488.7C320 483.3 291 481.7 262 483.5C233 485.3 204 490.7 174.8 496C145.7 501.3 116.3 506.7 87.2 506.7C58 506.7 29 501.3 14.5 498.7L0 496Z" fill="#000000"></path></svg>